<?xml version="1.0" encoding="UTF-8" standalone="no"?>
<svg width="100px" height="100px" viewBox="0 0 100 100" version="1.1" xmlns="http://www.w3.org/2000/svg" xmlns:xlink="http://www.w3.org/1999/xlink">
    <!-- Generator: Sketch 39.1 (31720) - http://www.bohemiancoding.com/sketch -->
    <title>Group 13</title>
    <desc>Created with Sketch.</desc>
    <defs></defs>
    <g id="Page-1-Copy" stroke="none" stroke-width="1" fill="none" fill-rule="evenodd">
        <g id="3_lowfees" transform="translate(-528.000000, -1130.000000)">
            <g id="Group-7" transform="translate(52.000000, 0.000000)">
                <g id="Group-14" transform="translate(23.000000, 1012.000000)">
                    <g id="Group-13" transform="translate(453.000000, 118.000000)">
                        <g id="Group-2-Copy-8" fill="#FFFFFF" opacity="0.200000003">
                            <g id="Group-6">
                                <ellipse id="Oval-1-Copy" cx="50" cy="49.9721517" rx="50" ry="49.9721517"></ellipse>
                            </g>
                        </g>
                        <g id="Group-4" transform="translate(19.000000, 25.000000)">
                            <rect id="Rectangle-174" fill="#FFFFFF" x="10.440678" y="0" width="45.559322" height="51.0545455" rx="1.9"></rect>
                            <path d="M8.10161925,51.1879158 C3.62721849,51.1879158 0,47.5509511 0,43.0848669 L0,36.8725806 C0,35.8283414 0.848292576,34.9818182 1.9072151,34.9818182 L40.5596924,34.9818182 C41.6130182,34.9818182 42.4220181,35.8214672 42.3851705,36.8863261 C42.3851705,36.8863261 41.9207821,42.8737059 43.3750988,46.0106924 C44.8294155,49.1476789 49.3971397,51.1879166 49.3971397,51.1879166 L8.10161925,51.1879158 Z" id="Combined-Shape-Copy" fill="#61C66C"></path>
                            <rect id="Rectangle-173" fill="#3B537C" x="17.0847458" y="10.4" width="28.4745763" height="5.67272727" rx="0.95"></rect>
                            <rect id="Rectangle-173-Copy" fill="#3B537C" x="17.0847458" y="21.7454545" width="21.8305085" height="5.67272727" rx="0.95"></rect>
                        </g>
                    </g>
                </g>
            </g>
        </g>
    </g>
</svg>